HIERARCHY
ROOT pelvis
{
  OFFSET 0 0 0
  CHANNELS 6 Xposition Yposition Zposition Zrotation Xrotation Yrotation
  JOINT pelvis_right_femur
  {
    OFFSET -11.43119 -3.542788 0.2090856
    CHANNELS 3 Zrotation Xrotation Yrotation
    JOINT right_femur_tibia
    {
      OFFSET -1.028693 -40.73281 5
      CHANNELS 3 Zrotation Xrotation Yrotation
      JOINT right_tibia_foot
      {
        OFFSET -0.5013517 -42.05707 -5
        CHANNELS 3 Zrotation Xrotation Yrotation
        End Site
        {
          OFFSET 0 -5 10
        }
      }
    }
  }
  JOINT pelvis_left_femur
  {
    OFFSET 11.43119 -3.542788 0.2090856
    CHANNELS 3 Zrotation Xrotation Yrotation
    JOINT left_femur_tibia
    {
      OFFSET 1.028693 -40.73281 5
      CHANNELS 3 Zrotation Xrotation Yrotation
      JOINT left_tibia_foot
      {
        OFFSET 0.3200228 -42.98253 -5
        CHANNELS 3 Zrotation Xrotation Yrotation
        End Site
        {
          OFFSET 0 -5 10
        }
      }
    }
  }
  JOINT pelvis_spine1
  {
    OFFSET 0 8.64413 -3.209807
    CHANNELS 3 Zrotation Xrotation Yrotation
    JOINT spine1
    {
      OFFSET 0 29.53957 -1.762685
      CHANNELS 3 Zrotation Xrotation Yrotation
      JOINT spine2
      {
        OFFSET 0 16.36153 -0.1422377
        CHANNELS 3 Zrotation Xrotation Yrotation
        JOINT neck
        {
          OFFSET 0 11.60093 5
          CHANNELS 3 Zrotation Xrotation Yrotation
          End Site
          {
            OFFSET 0 20 0
          }
        }
      }
      JOINT right_manubrium
      {
        OFFSET -4.671311 15.89868 4
        CHANNELS 3 Zrotation Xrotation Yrotation
        JOINT right_clavicle
        {
          OFFSET -13.601 1.573642 -2.74176
          CHANNELS 3 Zrotation Xrotation Yrotation
          JOINT right_humerus
          {
            OFFSET -0.06331682 -27.72702 2.252146
            CHANNELS 3 Zrotation Xrotation Yrotation
            JOINT right_radius
            {
              OFFSET -0.5696302 -23.92083 0.4042105
              CHANNELS 3 Zrotation Xrotation Yrotation
              End Site
              {
                OFFSET 0 -15 0
              }
            }
          }
        }
      }
      JOINT left_manubrium
      {
        OFFSET 4.671311 15.89868 4
        CHANNELS 3 Zrotation Xrotation Yrotation
        JOINT left_clavicle
        {
          OFFSET 13.601 1.573642 -2.74176
          CHANNELS 3 Zrotation Xrotation Yrotation
          JOINT left_humerus
          {
            OFFSET 0.000209614 -29.01858 1.101395
            CHANNELS 3 Zrotation Xrotation Yrotation
            JOINT left_radius
            {
              OFFSET -0.2288314 -24.59216 1.790347
              CHANNELS 3 Zrotation Xrotation Yrotation
              End Site
              {
                OFFSET 0 -15 0
              }
            }
          }
        }
      }
    }
  }
}
MOTION
Frames: 11
Frame Time: 0.0416666666667
2.824127 47.61883 9.395278 -6.870181 -18.26427 -12.09412 -54.69846 -61.39195 -54.51882 -180 85.46273 -180 4.992704 5.662547 -0.4186196 69.62019 -51.10856 64.46639 -180 79.71291 -180 -5.027937 2.872983 -19.1246 2.38609 21.18024 -2.131481 4.818467 13.86841 -8.536171 -9.785624 9.258006 11.69142 5.832452 -29.45321 6.716762 18.31237 -5.865949 25.94341 -59.84778 -34.70931 18.49572 0 -70.54117 0 25.47714 14.28645 40.68644 -28.2249 -27.24699 -6.511566 51.73579 -24.99707 -25.34172 0 -73.26237 0 -5.34734 -14.36081 9.450136
2.841301 47.56012 9.479944 -6.811721 -18.19405 -12.24733 -54.95656 -61.45341 -54.82263 -180 85.4606 -180 4.978348 5.701304 -0.3182516 69.61287 -51.13562 64.46272 -180 79.70986 -180 -5.074371 2.844279 -19.01582 2.397308 21.09485 -2.117522 4.753329 13.87129 -8.426911 -9.85335 9.278295 12.63742 5.568219 -29.18295 7.917631 18.26171 -5.927217 25.88495 -59.66952 -34.53504 18.05798 0 -70.65168 0 25.33582 14.48282 40.98592 -27.94107 -27.31957 -6.239311 52.37972 -24.56949 -24.52578 0 -73.5408 0 -4.490653 -15.13074 10.57515
2.856943 47.49846 9.565869 -6.712348 -18.12945 -12.37729 -55.27797 -61.52485 -55.14707 -180 85.44413 -180 4.966274 5.736814 -0.2224924 69.56687 -51.16329 64.4621 -180 79.7137 -180 -5.121806 2.818565 -18.9084 2.414809 21.00776 -2.011096 4.681075 13.88695 -8.25361 -10.03457 9.340414 13.96053 5.262424 -28.78925 9.577557 18.20442 -6.030694 25.66543 -59.53682 -34.36058 17.61198 0 -70.84799 0 25.19501 14.62296 41.22576 -27.51631 -27.53553 -5.856439 53.32687 -23.94322 -23.32749 0 -73.77611 0 -3.775271 -15.88278 11.52737
2.875743 47.43694 9.652117 -6.585103 -18.06907 -12.46445 -55.63859 -61.59687 -55.47087 -180 85.41785 -180 4.960514 5.762866 -0.1452806 69.49411 -51.20452 64.47343 -180 79.72747 -180 -5.165316 2.799324 -18.81238 2.456787 20.92812 -1.817397 4.619183 13.91881 -8.040888 -10.32159 9.451493 15.60709 4.920223 -28.29849 11.623 18.14601 -6.182681 25.28723 -59.4588 -34.18772 17.14921 0 -71.14242 0 25.05779 14.70954 41.41428 -26.95248 -27.92724 -5.367475 54.55196 -23.12993 -21.75334 0 -73.82926 0 -3.19729 -16.59908 12.34877
2.900206 47.37611 9.734696 -6.455077 -18.00914 -12.49514 -56.00163 -61.65177 -55.77031 -180 85.38941 -180 4.965108 5.775764 -0.09857177 69.41039 -51.27669 64.49829 -180 79.75208 -180 -5.198955 2.78975 -18.7348 2.537299 20.86598 -1.552214 4.589602 13.96609 -7.82867 -10.66723 9.616185 17.42809 4.556307 -27.75345 13.87549 18.08954 -6.379284 24.78289 -59.44276 -34.01052 16.66353 0 -71.53024 0 24.92676 14.7447 41.5587 -26.25955 -28.51997 -4.770029 56.00729 -22.15343 -19.84069 0 -73.5664 0 -2.748536 -17.26056 13.07644
2.934695 47.32052 9.815895 -6.358775 -17.94322 -12.46736 -56.3127 -61.6686 -56.00908 -180 85.36924 -180 4.983274 5.775399 -0.09259075 69.3348 -51.39252 64.53346 -180 79.78443 -180 -5.2165 2.791784 -18.68168 2.663545 20.83124 -1.24768 4.617892 14.02139 -7.667964 -10.98829 9.833307 19.19478 4.196816 -27.20703 16.07228 18.03431 -6.602817 24.21473 -59.49105 -33.81493 16.15702 0 -71.98907 0 24.80484 14.72973 41.66569 -25.45534 -29.32782 -4.069355 57.62826 -21.0524 -17.65799 0 -72.83737 0 -2.424576 -17.84576 13.7433
2.978663 47.27149 9.898272 -6.299775 -17.87104 -12.38389 -56.55603 -61.6607 -56.17858 -180 85.35483 -180 5.016441 5.762992 -0.1295493 69.29331 -51.5424 64.59225 -180 79.81879 -180 -5.217382 2.805157 -18.65448 2.79475 20.82763 -0.9412973 4.712282 14.07102 -7.57022 -11.23225 10.08926 20.75609 3.861919 -26.6942 18.03804 17.98151 -6.833674 23.64662 -59.59208 -33.5958 15.64374 0 -72.48691 0 24.69251 14.66539 41.74048 -24.54253 -30.33418 -3.300526 59.35241 -19.87186 -15.3022 0 -71.52266 0 -2.223972 -18.33546 14.36993
3.025784 47.22443 9.981607 -6.267966 -17.79265 -12.2576 -56.73817 -61.65331 -56.28681 -180 85.33899 -180 5.064603 5.740478 -0.2063527 69.30895 -51.70757 64.69286 -180 79.84887 -180 -5.20454 2.827785 -18.6515 2.875105 20.84664 -0.6598976 4.875631 14.1081 -7.530067 -11.38118 10.3637 22.04834 3.563951 -26.23597 19.6943 17.93311 -7.057493 23.1297 -59.73183 -33.35313 15.13837 0 -72.99005 0 24.58918 14.55226 41.78758 -23.52425 -31.50039 -2.528065 61.11816 -18.66234 -12.88315 0 -69.52261 0 -2.147855 -18.71361 14.96948
3.07531 47.17681 10.0678 -6.266756 -17.69974 -12.10551 -56.8577 -61.645 -56.33708 -180 85.32476 -180 5.125759 5.710928 -0.3163504 69.38057 -51.88022 64.83392 -180 79.87048 -180 -5.181682 2.855379 -18.66845 2.891441 20.85563 -0.3906447 5.123845 14.15624 -7.563064 -11.46512 10.63755 23.12717 3.30383 -25.8425 21.09321 17.88842 -7.27607 22.67751 -59.91133 -33.08449 14.63856 0 -73.47307 0 24.49529 14.39171 41.81173 -22.43769 -32.76821 -1.85375 62.85075 -17.47565 -10.51389 0 -66.76538 0 -2.199476 -18.97305 15.54944
3.132121 47.131 10.15986 -6.298872 -17.58867 -11.93839 -56.91696 -61.63003 -56.33576 -180 85.31779 -180 5.197067 5.676044 -0.4517266 69.49804 -52.06119 65.00486 -180 79.88249 -180 -5.151449 2.883972 -18.70114 2.848971 20.83992 -0.1168864 5.460173 14.22794 -7.675102 -11.52244 10.89556 24.08039 3.080254 -25.51538 22.32237 17.85289 -7.495948 22.28578 -60.12872 -32.7904 14.13775 0 -73.92253 0 24.41027 14.18563 41.81734 -21.33985 -34.08893 -1.363439 64.48163 -16.35681 -8.275686 0 -63.25609 0 -2.379267 -19.12113 16.10867
3.202165 47.09305 10.25923 -6.363255 -17.46254 -11.75876 -56.92307 -61.60557 -56.29444 -180 85.32251 -180 5.275491 5.635753 -0.6041634 69.65207 -52.25519 65.19296 -180 79.88519 -180 -5.115305 2.910453 -18.74655 2.759233 20.80839 0.1656405 5.867487 14.31635 -7.853836 -11.58438 11.12573 24.99111 2.894385 -25.25204 23.46432 17.83972 -7.721982 21.94477 -60.37258 -32.47554 13.63274 0 -74.33247 0 24.33249 13.93603 41.80842 -20.30212 -35.4284 -1.117539 65.94904 -15.34447 -6.218736 0 -59.08056 0 -2.683544 -19.18008 16.63762
